{"title":"High School Musical 2 2007 DVDrip Dutch Klam","uid":6755432,"size":1786770283,"categoryP":"video","categoryS":"movies","magnet":"?xt=urn:btih:206a0e756229b6d8816dbb8d47b3e010c14f18c0&amp;dn=High+School+Musical+2+2007+DVDrip+Dutch+Klam&amp;tr=udp%3A%2F%2Ftracker.openbittorrent.com%3A80&amp;tr=udp%3A%2F%2Fopen.demonii.com%3A1337&amp;tr=udp%3A%2F%2Ftracker.coppersurfer.tk%3A6969&amp;tr=udp%3A%2F%2Fexodus.desync.com%3A6969","seeders":9,"leechers":2,"uploader":"Klambake","files":-1,"time":1319024220,"description":"With: Zac Efron, Vanessa Hudgens and Ashley Tisdale\n\nIedereen van de East High Wild Cats heeft een baantje bij de Evan's Country Club, dat eigendom is van Ryan en Sharpay's ouders. Elk jaar organiseert de countryclub een talentenjacht waar ze het het op moeten nemen tegen een andere club. Deze race wordt echter lastiger dan de voorgaande jaren, omdat Sharpay Ryan laat vallen en een duet met Troy wil doen tijdens de talentenjacht.\n\nDuring the summer vacations a talent show is organized in a local country club and Troy, Gabriella, Sharpay, Ryan, Chad and Taylor take part in it. \n\n------------------ Dutch Friends ------------------\nYou can find my Friends at: http://www.Film-Test.nl \n------ They got my dutch subs ----- and more ------\n\nGeneral:\n\nComplete name                    : High School Musical 2\\High School Musical 2.avi\nFormat                           : AVI\nFormat/Info                      : Audio Video Interleave\nFile size                        : 1.66 GiB\nDuration                         : 1h 46mn\nOverall bit rate                 : 2 237 Kbps\n\nVideo:\n\nFormat                           : MPEG-4 Visual\nFormat profile                   : Simple@L3\nFormat settings, BVOP            : No\nFormat settings, QPel            : No\nFormat settings, GMC             : No warppoints\nFormat settings, Matrix          : Default (H.263)\nCodec ID                         : XVID\nCodec ID/Hint                    : XviD\nDuration                         : 1h 46mn\nBit rate                         : 1 842 Kbps\nWidth                            : 704 pixels\nHeight                           : 396 pixels\nDisplay aspect ratio             : 16:9\nFrame rate                       : 25.000 fps\nColor space                      : YUV\nChroma subsampling               : 4:2:0\nBit depth                        : 8 bits\nScan type                        : Progressive\nCompression mode                 : Lossy\nBits/(Pixel*Frame)               : 0.264\nStream size                      : 1.37 GiB (82%)\nWriting library                  : XviD 1.1.2 (UTC 2006-11-01)\n\nAudio:\n\nFormat                           : AC-3\nFormat/Info                      : Audio Coding 3\nMode extension                   : CM (complete main)\nCodec ID                         : 2000\nDuration                         : 1h 46mn\nBit rate mode                    : Constant\nBit rate                         : 384 Kbps\nChannel(s)                       : 6 channels\nChannel positions                : Front: L C R, Side: L R, LFE\nSampling rate                    : 48.0 KHz\nBit depth                        : 16 bits\nCompression mode                 : Lossy\nStream size                      : 292 MiB (17%)\nAlignment                        : Aligned on interleaves\nInterleave, duration             : 32 ms (0.80 video frame)\n\n","torrent":{"xt":"urn:btih:206a0e756229b6d8816dbb8d47b3e010c14f18c0","amp;dn":"High+School+Musical+2+2007+DVDrip+Dutch+Klam","amp;tr":["udp%3A%2F%2Ftracker.openbittorrent.com%3A80","udp%3A%2F%2Fopen.demonii.com%3A1337","udp%3A%2F%2Ftracker.coppersurfer.tk%3A6969","udp%3A%2F%2Fexodus.desync.com%3A6969"],"infoHash":"206a0e756229b6d8816dbb8d47b3e010c14f18c0","infoHashBuffer":{"type":"Buffer","data":[32,106,14,117,98,41,182,216,129,109,187,141,71,179,224,16,193,79,24,192]},"announce":[],"urlList":[]}}